<svg width="88" height="50" viewBox="0 0 88 50" fill="none" xmlns="http://www.w3.org/2000/svg">
<path fill-rule="evenodd" clip-rule="evenodd" d="M62.8571 0H25.1429V4.16667H16.7619V12.5H8.38095V20.8333H0V29.1667H8.38095V37.5H16.7619V45.8333H25.1429V50H62.8571V45.8333H71.2381V37.5H79.6191V29.1667H88V20.8333H79.6191V12.5H71.2381V4.16667H62.8571V0ZM71.2381 12.5H62.8571V8.33333H25.1429V12.5H16.7619V20.8333H8.38095V29.1667H16.7619V37.5H25.1429V41.6667H62.8571V37.5H71.2381V29.1667H79.6191V20.8333H71.2381V12.5ZM37.7143 12.5H50.2857V16.6667H54.4762V20.8333H58.6667V29.1667H54.4762V33.3333H50.2857V37.5H37.7143V33.3333H33.5238V29.1667H29.3333V20.8333H33.5238V16.6667H37.7143V12.5Z" fill="#231F1E"/>
</svg>
