<svg width="88" height="50" viewBox="0 0 88 50" fill="none" xmlns="http://www.w3.org/2000/svg">
<path fill-rule="evenodd" clip-rule="evenodd" d="M79.6191 16.6667V20.8333H88V29.1667H79.6191V33.3333H75.4286V37.5H71.2381V41.6667H62.8571V45.8333H58.6667V50H29.3333V45.8333H25.1429V41.6667H16.7619V37.5H12.5714V33.3333H8.38095V29.1667H0V20.8333H8.38095V16.6667H12.5714V12.5H16.7619V8.33333H20.9524V4.16667H29.3333V0H58.6667V4.16667H67.0476V8.33333H71.2381V12.5H75.4286V16.6667H79.6191ZM54.4762 8.33333H33.5238V12.5H25.1429V16.6667H16.7619V33.3333H25.1429V37.5H33.5238V41.6667H54.4762V37.5H62.8571V33.3333H71.2381V16.6667H62.8571V12.5H54.4762V8.33333Z" fill="#231F1E"/>
<path d="M37.7143 12.5H50.2857V16.6667H54.4762V20.8333H58.6667V29.1667H54.4762V33.3333H50.2857V37.5H37.7143V33.3333H33.5238V29.1667H29.3333V20.8333H33.5238V16.6667H37.7143V12.5Z" fill="#231F1E"/>
</svg>
